# xmcd
#
# Track frame offsets:
#	150
#	6840
#	22421
#	38030
#	52535
#	59539
#	73115
#	81267
#	93589
#	103773
#	113894
#	123894
#	137103
#	153436
#	166139
#	176456
#	195955
#	209894
#	223514
#
# Disc length: 3109 seconds
#
# Revision: 2
# Processed by: cddbd v1.5.2PL0 Copyright (c) Steve Scherf et al.
# Submitted via: audiograbber 1.82.02
#
DISCID=0b0c2313
DTITLE=Australian Bush BA Tribute Vol 1-5 - Tribute Series No 2
DYEAR=2002
DGENRE=Country
TTITLE0=Norm Bodkin - Fender Bender
TTITLE1=Buddy Bishop - When Murphy Rode The Bull
TTITLE2=Kylie Bedford - Kelly's Offsider
TTITLE3=Allan (Swaney) Swanson - Some Things A Man Can't Fight
TTITLE4=Allan (Swaney) Swanson - Timber Raft Jig
TTITLE5=Thel Carey - Time To Say Goodbye
TTITLE6=Norm Bodkin - Steeling Time
TTITLE7=Charlie Bellert - Lonely Heart
TTITLE8=Des Wiley - Highways Of The Great Outback
TTITLE9=Paul Lester - Along The Road
TTITLE10=Barry Thornton - Winter Winds
TTITLE11=Buddy Bishop - The Farmyard Yodel
TTITLE12=Thel Carey - When The Lights Go Out
TTITLE13=Paul Lester - The All Star Western Show
TTITLE14=Charlie Bellert - I Can't Win
TTITLE15=Allan (Swaney) Swanson - Orange Blossom Special
TTITLE16=Des Wiley - Changing Of The Seasons
TTITLE17=Kylie Bedford - Boys In Boots
TTITLE18=Barry Thornton - Talking Guitar
EXTD=
EXTT0=
EXTT1=
EXTT2=
EXTT3=
EXTT4=
EXTT5=
EXTT6=
EXTT7=
EXTT8=
EXTT9=
EXTT10=
EXTT11=
EXTT12=
EXTT13=
EXTT14=
EXTT15=
EXTT16=
EXTT17=
EXTT18=
PLAYORDER=
